<?xml version="1.0" encoding="utf-8"?>
<!-- Generator: Adobe Illustrator 24.3.0, SVG Export Plug-In . SVG Version: 6.00 Build 0)  -->
<svg version="1.1" id="Layer_1" xmlns="http://www.w3.org/2000/svg" xmlns:xlink="http://www.w3.org/1999/xlink" x="0px" y="0px"
	 width="60px" height="60px" viewBox="0 0 60 60" style="enable-background:new 0 0 60 60;" xml:space="preserve">
<g>
	<path d="M57.1,0H34.4c-1.8,0-3.2,1.4-3.2,3.2v19.7c0,0.5,0.4,0.9,0.9,0.9l0,0c0.5,0,0.9-0.4,0.9-0.9V3.2c0-0.8,0.7-1.5,1.5-1.5
		h22.7c0.8,0,1.5,0.7,1.5,1.5v28.6c0,0.8-0.7,1.5-1.5,1.5H34.4c-0.8,0-1.5-0.7-1.5-1.5v-4.4c0-0.5-0.4-0.9-0.9-0.9l0,0
		c-0.5,0-0.9,0.4-0.9,0.9v4.4c0,1.8,1.4,3.2,3.2,3.2h22.7c1.8,0,3.2-1.4,3.2-3.2V3.2C60.3,1.4,58.9,0,57.1,0z"/>
	<path d="M27.8,8.9v11c0,0.8-0.7,1.5-1.5,1.5H3.5c-0.8,0-1.5-0.7-1.5-1.5V3.2c0-0.8,0.7-1.5,1.5-1.5h22.8c0.8,0,1.5,0.7,1.5,1.5v1.5
		c0,0.5,0.4,0.9,0.9,0.9h0c0.5,0,0.9-0.4,0.9-0.9V3.2c0-1.8-1.4-3.2-3.2-3.2H3.5C1.8,0,0.3,1.4,0.3,3.2v16.7c0,1.8,1.4,3.2,3.2,3.2
		h22.8c1.8,0,3.2-1.4,3.2-3.2v-11c0-0.5-0.4-0.9-0.9-0.9h0C28.2,8,27.8,8.4,27.8,8.9z"/>
	<path d="M57.1,36.8H34.4c-1.8,0-3.2,1.4-3.2,3.2v16.7c0,1.8,1.4,3.2,3.2,3.2h13.5c0.5,0,0.9-0.4,0.9-0.9l0,0c0-0.5-0.4-0.9-0.9-0.9
		H34.4c-0.8,0-1.5-0.7-1.5-1.5V40c0-0.8,0.7-1.5,1.5-1.5h22.7c0.8,0,1.5,0.7,1.5,1.5v16.7c0,0.8-0.7,1.5-1.5,1.5h-4.5
		c-0.5,0-0.9,0.4-0.9,0.9l0,0c0,0.5,0.4,0.9,0.9,0.9h4.5c1.8,0,3.2-1.4,3.2-3.2V40C60.3,38.2,58.9,36.8,57.1,36.8z"/>
	<path d="M26.3,24.8H3.6c-1.8,0-3.2,1.4-3.2,3.2v3.6c0,0.5,0.4,0.9,0.9,0.9h0c0.5,0,0.9-0.4,0.9-0.9V28c0-0.8,0.7-1.5,1.5-1.5h22.7
		c0.8,0,1.5,0.7,1.5,1.5v28.6c0,0.8-0.7,1.5-1.5,1.5H3.6c-0.8,0-1.5-0.7-1.5-1.5V36.1c0-0.5-0.4-0.9-0.9-0.9h0
		c-0.5,0-0.9,0.4-0.9,0.9v20.6c0,1.8,1.4,3.2,3.2,3.2h22.7c1.8,0,3.2-1.4,3.2-3.2V28C29.5,26.3,28.1,24.8,26.3,24.8z"/>
</g>
</svg>
