<?xml version="1.0" encoding="utf-8"?>
<!-- Generator: Adobe Illustrator 24.3.0, SVG Export Plug-In . SVG Version: 6.00 Build 0)  -->
<svg version="1.1" id="Layer_1" xmlns="http://www.w3.org/2000/svg" xmlns:xlink="http://www.w3.org/1999/xlink" x="0px" y="0px"
	 width="60px" height="60px" viewBox="0 0 60 60" style="enable-background:new 0 0 60 60;" xml:space="preserve">
<g>
	<g>
		<g>
			<path d="M25.4,8.6c-5,2-8.3,6.8-8.3,12.2c0,1.9,1.6,3.5,3.5,3.5c1.9,0,3.5-1.6,3.5-3.5c0-3.3,2.7-6,6-6.1c3.3,0,6.1,2.8,6.1,6
				c0,2.5-1.5,4.7-3.9,5.7c-1.7,0.6-3.1,1.8-4.1,3.2c-1.9,2.7-1.6,4.9-1.6,8.5c0,0.3,0,0.6,0.1,0.8c0.1,0.4,0.4,0.7,0.9,0.7
				c0.6,0,1-0.5,0.9-1.1c-0.1-0.3-0.1-0.1-0.1-3.9c0-2.9,1.8-5.5,4.6-6.6c5.2-2,6.8-8.7,2.7-12.8c-4.9-4.9-13.3-1.4-13.3,5.5
				c0,1-0.8,1.8-1.8,1.8c-1,0-1.8-0.8-1.8-1.8c0-6.3,5.3-11.7,12-11.3c5.8,0.4,10.6,5.3,10.6,11.3c0,4.7-2.9,8.9-7.3,10.6
				c-0.7,0.3-1.3,0.7-1.7,1.3c-0.8,1.1-0.6,1.8-0.6,5.5c0,1-0.8,1.8-1.8,1.8c-0.5,0-0.9,0.4-0.9,0.9c0,1.8,4.4,0.7,4.4-2.6v-3.5
				c0-0.7,0.5-1.4,1.2-1.7c5.1-2,8.4-6.8,8.4-12.2C43.3,11.6,34,5.2,25.4,8.6z"/>
		</g>
	</g>
	<g>
		<g>
			<path d="M33.2,46.9c-1.4-2.3-4.5-2.2-5.9-0.1c-1.5,2.3,0.1,5.5,3,5.5C32.9,52.2,34.6,49.3,33.2,46.9z M29.8,50.4
				c-0.7-0.2-1.2-0.7-1.3-1.4c-0.4-1.9,2.2-2.9,3.2-1.3C32.5,49.2,31.3,50.8,29.8,50.4z"/>
		</g>
	</g>
	<g>
		<g>
			<path d="M45,4C29.4-5.1,9.4,1.7,2.4,18.3C-0.5,25-0.7,32.6,1.5,39.4c1.6,4.7,4.1,8.1,4.3,8.3l0,0l0,0c0,0,0,0,0,0c0,0,0,0,0,0
				c0,0,0,0,0,0c0.3,0.3,0.6,0.2,0.7,0.2l0,0c0,0,0.1,0,0.2,0c0,0,0,0,0,0s0,0,0,0h0c0.6-0.2,0.7-1,0.4-1.3
				C-6.4,27.8,7.1,1.7,30,1.7c15.8,0,28.2,12.9,28.2,28.2c0,15.6-12.6,28.2-28.2,28.2c-6,0-11.7-1.9-16.6-5.4
				c-0.3-0.2-0.6-0.2-0.9-0.1l-9.9,5.3c-0.5,0.3-0.9-0.2-0.9-0.5c0-0.2-0.2,0.3,3.7-7.1c0.3-0.6-0.1-1.3-0.8-1.3
				c-0.3,0-0.6,0.2-0.8,0.5c-4,7.4-4,7.1-4,7.9c0,1.7,1.9,2.9,3.5,2.1l9.4-5.1c10.1,7.1,23.7,7.2,33.9,0.2C65.1,42.4,64.2,15.1,45,4
				z"/>
		</g>
	</g>
</g>
</svg>
