<?xml version="1.0" encoding="utf-8"?>
<!-- Generator: Adobe Illustrator 24.3.0, SVG Export Plug-In . SVG Version: 6.00 Build 0)  -->
<svg version="1.1" id="Layer_1" xmlns="http://www.w3.org/2000/svg" xmlns:xlink="http://www.w3.org/1999/xlink" x="0px" y="0px"
	 width="60px" height="60px" viewBox="0 0 60 60" style="enable-background:new 0 0 60 60;" xml:space="preserve">
<g>
	<g>
		<g>
			<path d="M4.4,17.1c-0.1,0-0.3,0-0.4-0.1c-0.4-0.2-0.6-0.8-0.4-1.2C8.9,6.1,19,0.1,30,0.1c7.3,0,14.4,2.7,19.9,7.5
				c0.4,0.3,0.4,0.9,0.1,1.2c-0.3,0.4-0.9,0.4-1.2,0.1C43.5,4.4,36.9,1.9,30,1.9c-10.4,0-19.9,5.7-24.8,14.8C5,17,4.7,17.1,4.4,17.1
				z"/>
		</g>
		<path d="M52.6,10.4c-0.3-0.4-0.9-0.4-1.2-0.1c-0.4,0.3-0.4,0.9-0.1,1.2c4.5,5.1,7,11.7,7,18.6c0,7.5-2.9,14.6-8.3,20
			s-12.4,8.3-20,8.3H6.3c-0.1,0-0.2-0.1-0.2-0.1c0,0-0.1-0.1,0-0.2l2.8-6.6c0.9,0.9,1.9,1.7,2.9,2.5c0.2,0.1,0.3,0.2,0.5,0.2
			c0.3,0,0.5-0.1,0.7-0.3c0.3-0.4,0.2-0.9-0.2-1.2c-1.3-1-3.6-3.3-3.6-3.3c-4.8-5.2-7.5-12-7.5-19.2c0-3.5,0.6-6.9,1.9-10.1
			c0.2-0.5-0.1-1-0.5-1.1c-0.5-0.2-1,0.1-1.1,0.5c-1.3,3.4-2,7.1-2,10.8c0,7.4,2.7,14.4,7.6,19.9l-3.1,7.3c-0.3,0.6-0.2,1.3,0.2,1.9
			c0.4,0.6,1,0.9,1.7,0.9H30c8,0,15.5-3.1,21.2-8.8S60,38.1,60,30.1C60,22.9,57.4,15.8,52.6,10.4L52.6,10.4z"/>
	</g>
	<g>
		<path d="M33,46.3h-4.6c-0.5,0-0.9-0.2-1.2-0.6c-0.3-0.4-0.3-0.9-0.1-1.3l1.9-4h-7.9l-2.5,5.2c-0.2,0.5-0.7,0.8-1.2,0.8h-4.6
			c-0.5,0-0.9-0.2-1.2-0.6c-0.3-0.4-0.3-0.9-0.1-1.3l1.9-4H9.9c-0.8,0-1.4-0.6-1.4-1.4v-4.1c0-0.8,0.6-1.4,1.4-1.4h6.9l3.2-6.7h-6
			c-0.8,0-1.4-0.6-1.4-1.4v-4.1c0-0.8,0.6-1.4,1.4-1.4h9.3l2.3-4.8c0.2-0.5,0.7-0.8,1.2-0.8h4.6c0.5,0,0.9,0.2,1.2,0.6
			c0.3,0.4,0.3,0.9,0.1,1.3l-1.7,3.6h7.9l2.3-4.8c0.2-0.5,0.7-0.8,1.2-0.8H47c0.5,0,0.9,0.2,1.2,0.6c0.3,0.4,0.3,0.9,0.1,1.3
			l-1.7,3.6h3.6c0.8,0,1.4,0.6,1.4,1.4v4.1c0,0.8-0.6,1.4-1.4,1.4h-6.9L40,33.4h6c0.8,0,1.4,0.6,1.4,1.4v4.1c0,0.8-0.6,1.4-1.4,1.4
			h-3.3c-0.5,0-0.9-0.4-0.9-0.9c0-0.5,0.4-0.9,0.9-0.9h2.9v-3.4h-6.2c-0.5,0-0.9-0.2-1.2-0.6c-0.3-0.4-0.3-0.9-0.1-1.3l3.6-7.5
			c0.2-0.5,0.7-0.8,1.2-0.8h6.7v-3.4h-3.8c-0.5,0-0.9-0.2-1.2-0.6c-0.3-0.4-0.3-0.9-0.1-1.3l1.7-3.6h-3.7l-2.3,4.8
			c-0.2,0.5-0.7,0.8-1.2,0.8h-8.8c-0.5,0-0.9-0.2-1.2-0.6c-0.3-0.4-0.3-0.9-0.1-1.3l1.7-3.6h-3.7l-2.3,4.8c-0.2,0.5-0.7,0.8-1.2,0.8
			h-9.2V25h6.2c0.5,0,0.9,0.2,1.2,0.6c0.3,0.4,0.3,0.9,0.1,1.3l-3.6,7.5c-0.2,0.5-0.7,0.8-1.2,0.8h-6.8v3.4h3.8
			c0.5,0,0.9,0.2,1.2,0.6c0.3,0.4,0.3,0.9,0.1,1.3l-1.9,4h3.7l2.5-5.2c0.2-0.5,0.7-0.8,1.2-0.8h8.8c0.5,0,0.9,0.2,1.2,0.6
			c0.3,0.4,0.3,0.9,0.1,1.3l-1.9,4h3.7l2.5-5.2c0.2-0.5,0.7-0.8,1.2-0.8h2.5c0.5,0,0.9,0.4,0.9,0.9s-0.4,0.9-0.9,0.9h-2.3l-2.5,5.2
			C34,46,33.5,46.3,33,46.3L33,46.3z M32.6,35.2h-8.8c-0.5,0-0.9-0.2-1.2-0.6c-0.3-0.4-0.3-0.9-0.1-1.3l3.6-7.5
			c0.2-0.5,0.7-0.8,1.2-0.8h8.8c0.5,0,0.9,0.2,1.2,0.6c0.3,0.4,0.3,0.9,0.1,1.3l-3.6,7.5C33.6,34.9,33.1,35.2,32.6,35.2z M24.4,33.4
			h7.9l3.2-6.7h-7.9L24.4,33.4z"/>
	</g>
</g>
</svg>
