<svg width="34" height="24" viewBox="0 0 34 24" fill="none" xmlns="http://www.w3.org/2000/svg">
<rect x="0.5" y="0.5" width="33" height="23" rx="3.5" fill="white" stroke="#D9D9D9"/>
<path fill-rule="evenodd" clip-rule="evenodd" d="M14.614 18.4483L14.8347 16.9992L14.3431 16.9873H11.9951L13.6268 6.2937C13.6319 6.26132 13.6484 6.23126 13.6724 6.20987C13.6965 6.18849 13.7272 6.17676 13.7594 6.17676H17.7184C19.0328 6.17676 19.9398 6.45939 20.4133 7.01734C20.6353 7.27908 20.7767 7.55267 20.8452 7.85364C20.9169 8.16951 20.9181 8.54685 20.8481 9.00715L20.843 9.04063V9.33561L21.0651 9.46563C21.252 9.56815 21.4006 9.68546 21.5145 9.81975C21.7044 10.0436 21.8272 10.3281 21.8791 10.6652C21.9328 11.012 21.9151 11.4248 21.8272 11.892C21.7259 12.4295 21.5622 12.8976 21.341 13.2805C21.1376 13.6334 20.8785 13.9262 20.5708 14.153C20.277 14.3686 19.928 14.5322 19.5333 14.6369C19.1509 14.7398 18.7149 14.7917 18.2367 14.7917H17.9286C17.7083 14.7917 17.4943 14.8737 17.3263 15.0207C17.1579 15.1708 17.0465 15.3758 17.0123 15.6L16.989 15.7305L16.599 18.2848L16.5814 18.3785C16.5767 18.4082 16.5686 18.423 16.5568 18.433C16.5463 18.4422 16.5311 18.4483 16.5164 18.4483H14.614Z" fill="#28356A"/>
<path fill-rule="evenodd" clip-rule="evenodd" d="M21.2756 9.07471C21.2639 9.15279 21.2503 9.23258 21.2352 9.31458C20.7131 12.0852 18.9268 13.0424 16.6456 13.0424H15.484C15.205 13.0424 14.9698 13.2517 14.9265 13.5362L14.1633 18.5394C14.1351 18.7263 14.2743 18.8945 14.4566 18.8945H16.5168C16.7607 18.8945 16.968 18.7113 17.0064 18.4627L17.0266 18.3545L17.4145 15.8103L17.4394 15.6708C17.4774 15.4213 17.6851 15.238 17.929 15.238H18.2371C20.2331 15.238 21.7957 14.4004 22.2524 11.9766C22.4431 10.9641 22.3443 10.1186 21.8395 9.52402C21.6868 9.34476 21.4973 9.19592 21.2756 9.07471Z" fill="#298FC2"/>
<path fill-rule="evenodd" clip-rule="evenodd" d="M20.7291 8.84968C20.6493 8.82561 20.567 8.80386 20.4826 8.78419C20.3977 8.765 20.3108 8.74802 20.2213 8.73311C19.9081 8.68081 19.5649 8.65601 19.1974 8.65601H16.0943C16.0178 8.65601 15.9452 8.67385 15.8803 8.70611C15.7372 8.77722 15.6309 8.91726 15.6051 9.0887L14.9449 13.4102L14.926 13.5362C14.9694 13.2517 15.2046 13.0424 15.4836 13.0424H16.6451C18.9264 13.0424 20.7126 12.0848 21.2347 9.31463C21.2503 9.23264 21.2634 9.15285 21.2751 9.07477C21.1431 9.00231 21 8.94035 20.846 8.88756C20.8079 8.87449 20.7687 8.8619 20.7291 8.84968Z" fill="#22284F"/>
<path fill-rule="evenodd" clip-rule="evenodd" d="M15.6054 9.08862C15.6312 8.91718 15.7374 8.77715 15.8806 8.70652C15.946 8.67414 16.0181 8.6563 16.0946 8.6563H19.1976C19.5652 8.6563 19.9084 8.68123 20.2216 8.73353C20.3111 8.74831 20.398 8.76542 20.4829 8.7846C20.5673 8.80415 20.6495 8.82603 20.7294 8.84998C20.769 8.8622 20.8082 8.8749 20.8466 8.88749C21.0007 8.94028 21.1438 9.00272 21.2759 9.07469C21.4312 8.05082 21.2746 7.3537 20.739 6.72245C20.1485 6.0274 19.0828 5.72998 17.7191 5.72998H13.76C13.4815 5.72998 13.2439 5.9393 13.2008 6.22426L11.5518 17.0279C11.5193 17.2416 11.6788 17.4344 11.8873 17.4344H14.3315L15.6054 9.08862Z" fill="#28356A"/>
</svg>
